<svg width="2000" height="1400" xmlns="http://www.w3.org/2000/svg"><defs><linearGradient id="a" gradientTransform="rotate(90)"><stop offset="5%" stop-color="#a7dbd8"/><stop offset="95%" stop-color="#bde4e1"/></linearGradient><linearGradient id="b" gradientTransform="rotate(90)"><stop offset="5%" stop-color="#ebebeb"/><stop offset="95%" stop-color="#f0f0f0"/></linearGradient></defs><path fill="#69d2e7" d="M0 0h2000v1400H0z"/><path d="M0 466c106.239 28.69 212.477 57.381 327 54 114.523-3.381 237.33-38.833 353-69 115.67-30.167 224.205-55.047 334-30 109.795 25.047 220.852 100.023 331 101 110.148.977 219.386-72.045 343-75 123.614-2.955 261.604 64.156 316 79 54.396 14.844 25.198-22.578 36-60l-40 934H0Z" fill="url(#a)"/><path d="M0 933c117.596 5.637 235.191 11.273 345 15 109.809 3.727 211.831 5.544 319 11 107.169 5.456 219.484 14.55 334 22 114.516 7.45 231.231 13.255 338 20 106.769 6.745 203.592 14.431 323-1 119.408-15.431 261.402-53.98 322-69 60.598-15.02 39.799-6.51 59 2l-40 467H0Z" fill="url(#b)"/></svg>